<?xml version="1.0" standalone="no"?>
<!DOCTYPE svg PUBLIC "-//W3C//DTD SVG 20010904//EN"
 "http://www.w3.org/TR/2001/REC-SVG-20010904/DTD/svg10.dtd">
<svg version="1.0" xmlns="http://www.w3.org/2000/svg"
 width="261.000000pt" height="261.000000pt" viewBox="0 0 261.000000 261.000000"
 preserveAspectRatio="xMidYMid meet">
<metadata>
Created by potrace 1.11, written by Peter Selinger 2001-2013
</metadata>
<g transform="translate(0.000000,261.000000) scale(0.100000,-0.100000)"
fill="#000000" stroke="none">
<path d="M279 2591 c-109 -35 -190 -109 -243 -221 l-31 -65 0 -1001 0 -1000
37 -76 c45 -91 103 -147 196 -191 l67 -32 979 -3 c1081 -3 1036 -5 1139 60 66
42 132 119 159 186 l23 57 0 1000 0 1000 -23 57 c-27 67 -103 155 -165 191
-100 59 -63 57 -1116 56 -900 0 -970 -1 -1022 -18z m1086 -115 c13 -13 27 -39
30 -57 3 -19 5 -155 3 -302 l-3 -269 -28 -24 c-38 -32 -90 -32 -122 1 l-25 24
0 301 0 301 25 24 c33 34 87 34 120 1z m-628 -523 c217 -223 230 -242 199
-301 -18 -34 -33 -42 -84 -42 -34 0 -48 13 -226 196 -105 108 -197 208 -204
221 -24 45 0 108 48 126 52 19 61 12 267 -200z m1442 170 c18 -21 22 -34 18
-65 -4 -33 -29 -63 -194 -234 -103 -108 -196 -200 -205 -205 -71 -38 -156 32
-128 106 12 32 375 413 405 426 32 14 78 1 104 -28z m-792 -635 c4 -7 10 -42
13 -78 l5 -65 44 -7 c54 -9 131 -47 145 -70 8 -13 4 -36 -14 -88 -33 -94 -39
-99 -98 -71 -97 45 -218 44 -259 -3 -51 -60 -13 -108 146 -183 136 -64 186
-102 226 -174 28 -50 30 -62 30 -154 0 -89 -3 -105 -27 -151 -33 -62 -104
-127 -164 -150 l-44 -17 0 -66 c0 -94 -9 -103 -95 -99 l-70 3 -3 76 -3 75 -62
13 c-87 18 -166 58 -174 89 -7 29 36 162 55 170 8 2 39 -7 70 -22 121 -56 217
-57 277 -4 29 24 35 37 35 68 0 50 -37 88 -128 130 -135 63 -156 76 -203 118
-68 61 -94 119 -93 212 0 130 60 223 175 275 l59 26 0 73 c0 40 3 76 7 79 12
13 141 8 150 -5z m-658 -184 c40 -33 43 -89 7 -131 l-24 -28 -259 -3 c-142 -2
-273 0 -292 3 -80 15 -108 100 -52 156 l29 29 280 0 280 0 31 -26z m1770 0
c40 -33 43 -89 7 -131 l-24 -28 -259 -3 c-142 -2 -273 0 -292 3 -80 15 -108
100 -52 156 l29 29 280 0 280 0 31 -26z"/>
</g>
</svg>
